<svg width="910" height="769" viewBox="0 0 910 769" fill="none" xmlns="http://www.w3.org/2000/svg">
<g clip-path="url(#clip0_2006_16)">
<path d="M101.779 569.317C105.595 563.557 109.77 558.044 114.28 552.809C126.855 537.548 140.484 523.187 155.069 509.832C201.504 466.907 256.609 434.435 316.667 414.607C462.345 367.042 626.882 398.407 743.62 497.624C768.47 518.739 794.202 544.248 810.602 569.259C817.343 579.548 833.992 569.95 827.175 559.662C811.524 535.764 790.688 514.401 769.775 495.225C721.157 450.601 663.588 416.837 600.899 396.18C448.999 346.561 278.452 380.248 156.586 482.979C130.296 505.168 104.275 530.678 85.2831 559.643C78.485 570.085 95.1153 579.682 101.779 569.317Z" fill="#010101" style="fill:#010101;fill:color(display-p3 0.0039 0.0039 0.0039);fill-opacity:1;"/>
<path d="M13.4425 453.879C11.8486 453.784 13.8074 454.129 15.3629 454.916C17.5246 456.137 19.5802 457.536 21.508 459.1C27.871 464.233 33.8586 469.814 39.4249 475.8C55.0106 492.178 69.6728 509.409 83.3435 527.415C114.338 567.397 144.104 609.952 166.476 655.482C169.711 661.803 172.508 668.338 174.849 675.042C175.694 677.64 176.405 680.279 176.98 682.95C176.692 681.625 176.98 683.852 176.98 683.948C178.401 685.618 175.501 684.505 177.633 683.065C179.112 682.048 181.474 681.146 182.684 680.167C183.893 679.188 183.605 681.376 182.242 679.917C182.78 680.493 179.534 678.362 178.708 677.844C173.117 674.004 167.931 669.605 163.23 664.715C127.339 630.011 97.3429 588.262 69.8626 546.801C54.97 524.943 41.4997 502.151 29.5351 478.564C25.9446 471.581 22.9386 464.314 20.5478 456.835C19.9333 454.782 19.53 451.346 19.0692 450.54C17.8785 448.505 20.4326 449.369 18.9347 449.887C17.4368 450.405 16.4575 453.726 13.3657 453.879C25.6368 453.131 25.7328 433.917 13.3657 434.685C-22.8523 436.911 25.3295 511.464 31.6283 522.117C62.6229 574.154 98.8408 625.212 140.666 669.168C150.633 679.648 163.711 695.081 178.382 698.786C193.514 702.624 197.72 687.768 195.128 676.059C190.941 657.21 179.995 638.975 170.547 622.314C154.351 594.271 136.625 567.14 117.449 541.043C98.2455 514.573 78.0049 488.526 55.4215 464.801C44.9556 453.822 29.9384 435.529 13.3657 434.608C1.01779 433.994 1.0562 453.188 13.4425 453.879Z" fill="#010101" style="fill:#010101;fill:color(display-p3 0.0039 0.0039 0.0039);fill-opacity:1;"/>
<path d="M181.916 698.21C217.807 695.964 170.605 622.755 164.325 612.16C133.599 560.334 97.4582 509.41 55.7672 465.646C45.9158 455.3 33.107 440.098 18.5122 436.431C3.91753 432.765 -0.787348 447.123 1.72832 458.755C5.81868 477.7 16.8991 496.05 26.4049 512.673C42.4336 540.433 59.9802 567.288 78.9651 593.118C97.7462 618.935 117.488 644.349 139.456 667.556C149.98 678.669 165.17 697.327 181.916 698.267C194.263 698.958 194.225 679.763 181.916 679.072C183.509 679.072 181.474 678.785 179.995 677.978C178.018 676.845 176.13 675.561 174.349 674.139C168.298 669.291 162.593 664.025 157.277 658.38C141.579 642.081 126.832 624.893 113.109 606.9C82.2297 567.148 52.5602 524.747 30.3032 479.466C27.1764 473.356 24.4564 467.046 22.1609 460.578C21.2777 457.932 20.5341 455.241 19.9333 452.517C19.757 451.889 19.757 451.225 19.9333 450.597C21.6232 450.597 14.0186 455.261 14.1722 455.166C12.5591 456.221 13.3465 454.052 14.6331 455.434C14.057 454.82 17.3984 457.047 18.2434 457.584C23.9066 461.539 29.168 466.039 33.9519 471.02C68.8448 504.995 98.1111 545.573 124.996 585.978C139.783 607.651 153.194 630.23 165.151 653.582C169.008 660.916 172.221 668.572 174.753 676.462C175.367 678.554 175.732 681.126 176.116 682.22C176.961 684.697 175.444 682.854 176.27 682.95C175.617 682.95 179.477 679.111 181.858 679.111C169.587 679.879 169.51 699.073 181.858 698.306L181.916 698.21Z" fill="#010101" style="fill:#010101;fill:color(display-p3 0.0039 0.0039 0.0039);fill-opacity:1;"/>
<path d="M127.781 729.747C127.133 730.191 126.358 730.414 125.572 730.38" stroke="white" style="stroke:white;stroke-opacity:1;" stroke-miterlimit="10"/>
<path d="M829.595 562.407C803.036 600.796 774.538 641.105 739.184 671.817C735.343 675.118 730.869 677.307 727.047 680.397C726.087 681.165 726.606 679.303 728.469 680.608C727.451 679.898 733.135 684.562 732.713 684.447C733.75 684.831 732.117 685.234 732.905 682.815C737.284 669.667 742.703 656.887 749.112 644.599C773.655 598.646 804.111 555.189 836.796 514.708C849.875 498 864.081 482.204 879.313 467.431C883.678 463.103 888.457 459.214 893.581 455.818C894.906 454.993 896.826 454.263 896.865 454.167C897.383 452.901 896.865 455.223 895.136 453.975C896.058 454.628 888.646 449.983 890.777 449.1C890.624 449.1 887.685 461.999 886.936 464.053C883.332 472.953 879.189 481.626 874.531 490.023C860.918 514.972 845.916 539.138 829.595 562.407C822.585 572.618 839.196 582.235 846.187 572.004C863.239 547.185 879.678 521.733 893.562 494.956C900.417 481.712 910.691 464.513 910.038 448.889C909.405 434.109 895.002 432.631 884.459 438.735C867.925 448.332 854.329 464.609 841.904 478.775C800.621 525.47 764.608 576.567 734.518 631.143C726.279 646.249 715.525 664.024 713.893 681.568C712.606 695.234 723.38 702.893 735.881 697.212C754.048 688.939 769.007 670.032 781.816 655.444C804.866 628.875 826.359 600.996 846.187 571.946C853.177 562.004 836.546 552.387 829.595 562.407Z" fill="#010101" style="fill:#010101;fill:color(display-p3 0.0039 0.0039 0.0039);fill-opacity:1;"/>
<path d="M727.931 698.517C742.007 697.73 754.413 683.948 763.669 674.696C782.7 655.732 799.637 634.637 815.96 613.273C836.108 587.084 854.901 559.882 872.265 531.772C884.555 511.79 896.769 491.098 904.911 469.043C908.598 459.158 913.764 441.096 899.611 436.7C887.109 432.861 873.302 447.104 865.352 454.571C846.59 472.153 830.113 492.327 814.309 512.539C794.126 538.375 775.076 565.113 757.504 592.792C750.937 603.119 688.275 695.983 727.835 698.459C740.164 699.227 740.125 680.032 727.835 679.264C730.024 679.399 733.366 683.852 733.596 683.833C733.826 683.814 732.943 684.217 733.596 683.391C734.249 682.566 733.903 680.858 734.268 679.399C736.079 672.742 738.529 666.275 741.585 660.089C751.214 640.211 762.119 620.976 774.231 602.505C801.5 559.566 831.841 517.453 866.83 480.445C872.15 474.802 877.623 469.293 883.461 464.168C886.552 461.461 893.811 457.143 895.252 455.588C896.692 454.033 897.172 456.471 895.713 455.338C896.02 455.569 888.166 450.828 889.951 450.751C891.737 450.674 888.665 451.154 889.951 450.348C889.836 450.348 889.951 452.901 889.836 453.131C888.571 458.461 886.823 463.665 884.613 468.679C866.081 512.5 837.065 553.001 808.951 590.949C793.086 612.709 775.966 633.526 757.677 653.294C751.356 660.246 744.588 666.78 737.417 672.853C735.339 674.57 733.159 676.16 730.888 677.614C728.968 678.861 726.337 679.418 727.931 679.322C715.641 680.013 715.564 699.227 727.931 698.517Z" fill="#010101" style="fill:#010101;fill:color(display-p3 0.0039 0.0039 0.0039);fill-opacity:1;"/>
<path d="M517.172 79.8119C516.711 105.053 501.29 128.375 477.113 136.916C465.345 141.162 452.552 141.67 440.483 138.371C428.415 135.072 417.661 128.128 409.691 118.488C401.721 108.848 396.926 96.9822 395.959 84.5139C394.993 72.0457 397.904 59.5835 404.293 48.8315C411.078 37.3959 421.434 28.5053 433.767 23.5273C446.101 18.5493 459.73 17.7598 472.556 21.2801C485.383 24.8005 496.697 32.4357 504.758 43.0112C512.819 53.5867 517.181 66.5166 517.172 79.8119C517.402 92.1541 536.625 92.1925 536.375 79.8119C536.363 67.4804 533.494 55.3194 527.992 44.2819C522.491 33.2445 514.506 23.6307 504.665 16.194C494.824 8.75739 483.393 3.70005 471.269 1.41843C459.145 -0.863178 446.657 -0.307052 434.784 3.04322C422.911 6.39349 411.976 12.4469 402.835 20.7288C393.695 29.0108 386.597 39.2962 382.1 50.7789C377.602 62.2617 375.826 74.6296 376.911 86.9132C377.996 99.1969 381.913 111.062 388.354 121.58C397.026 135.404 409.677 146.285 424.646 152.794C439.616 159.302 456.205 161.134 472.235 158.05C509.605 150.928 535.607 117.088 536.375 79.7543C536.606 67.4696 517.402 67.4696 517.172 79.8119Z" fill="#010101" style="fill:#010101;fill:color(display-p3 0.0039 0.0039 0.0039);fill-opacity:1;"/>
<path d="M446.637 391.688L385.185 514.823L287.919 709.304L265.297 754.565C262.11 760.938 265.95 769.019 273.593 769L396.496 768.866L591.297 768.674H636.253C643.934 768.674 647.775 760.631 644.549 754.239L583.098 631.239L485.851 436.911L463.229 391.688C457.698 380.632 441.125 390.345 446.656 401.286L508.108 524.305L605.278 718.575L627.957 763.952L636.253 749.517L513.35 749.652L318.549 749.863H273.593L281.889 764.316L343.341 641.182L440.511 446.701L463.133 401.42C468.721 390.345 452.168 380.613 446.637 391.688Z" fill="#010101" style="fill:#010101;fill:color(display-p3 0.0039 0.0039 0.0039);fill-opacity:1;"/>
<path d="M342.419 224.886H567.427L559.131 210.432L460.751 368.943L446.637 391.688H463.21L364.868 233.178L350.753 210.432C344.243 199.971 327.709 209.588 334.161 220.126L432.541 378.617L446.675 401.363C447.522 402.808 448.732 404.007 450.186 404.84C451.639 405.673 453.286 406.111 454.962 406.111C456.637 406.111 458.284 405.673 459.737 404.84C461.191 404.007 462.401 402.808 463.248 401.363L561.647 242.871L575.762 220.126C576.613 218.667 577.065 217.01 577.07 215.321C577.076 213.632 576.636 211.972 575.794 210.508C574.953 209.044 573.74 207.827 572.277 206.981C570.815 206.136 569.155 205.691 567.466 205.691H342.419C330.052 205.691 330.033 224.886 342.419 224.886Z" fill="#010101" style="fill:#010101;fill:color(display-p3 0.0039 0.0039 0.0039);fill-opacity:1;"/>
</g>
<defs>
<clipPath id="clip0_2006_16">
<rect width="910" height="769" fill="white" style="fill:white;fill-opacity:1;"/>
</clipPath>
</defs>
</svg>
